<svg width="135" height="83" viewBox="0 0 135 83" fill="none" xmlns="http://www.w3.org/2000/svg">
<path d="M23.85 39.245C22.1467 39.245 20.6067 38.9533 19.23 38.37C17.8767 37.7867 16.8033 36.9467 16.01 35.85C15.2167 34.7533 14.8083 33.4583 14.785 31.965H20.035C20.105 32.9683 20.455 33.7617 21.085 34.345C21.7383 34.9283 22.625 35.22 23.745 35.22C24.8883 35.22 25.7867 34.9517 26.44 34.415C27.0933 33.855 27.42 33.1317 27.42 32.245C27.42 31.5217 27.1983 30.9267 26.755 30.46C26.3117 29.9933 25.7517 29.6317 25.075 29.375C24.4217 29.095 23.5117 28.7917 22.345 28.465C20.7583 27.9983 19.4633 27.5433 18.46 27.1C17.48 26.6333 16.6283 25.945 15.905 25.035C15.205 24.1017 14.855 22.865 14.855 21.325C14.855 19.8783 15.2167 18.6183 15.94 17.545C16.6633 16.4717 17.6783 15.655 18.985 15.095C20.2917 14.5117 21.785 14.22 23.465 14.22C25.985 14.22 28.0267 14.8383 29.59 16.075C31.1767 17.2883 32.0517 18.9917 32.215 21.185H26.825C26.7783 20.345 26.4167 19.6567 25.74 19.12C25.0867 18.56 24.2117 18.28 23.115 18.28C22.1583 18.28 21.3883 18.525 20.805 19.015C20.245 19.505 19.965 20.2167 19.965 21.15C19.965 21.8033 20.175 22.3517 20.595 22.795C21.0383 23.215 21.575 23.565 22.205 23.845C22.8583 24.1017 23.7683 24.405 24.935 24.755C26.5217 25.2217 27.8167 25.6883 28.82 26.155C29.8233 26.6217 30.6867 27.3217 31.41 28.255C32.1333 29.1883 32.495 30.4133 32.495 31.93C32.495 33.2367 32.1567 34.45 31.48 35.57C30.8033 36.69 29.8117 37.5883 28.505 38.265C27.1983 38.9183 25.6467 39.245 23.85 39.245ZM42.4481 23.635V33.015C42.4481 33.6683 42.5998 34.1467 42.9031 34.45C43.2298 34.73 43.7665 34.87 44.5131 34.87H46.7881V39H43.7081C39.5781 39 37.5131 36.9933 37.5131 32.98V23.635H35.2031V19.61H37.5131V14.815H42.4481V19.61H46.7881V23.635H42.4481Z" fill="#4B3F27"/>
<path d="M94.315 22.41C94.945 21.5233 95.8083 20.7883 96.905 20.205C98.025 19.5983 99.2967 19.295 100.72 19.295C102.377 19.295 103.87 19.7033 105.2 20.52C106.553 21.3367 107.615 22.5033 108.385 24.02C109.178 25.5133 109.575 27.2517 109.575 29.235C109.575 31.2183 109.178 32.98 108.385 34.52C107.615 36.0367 106.553 37.215 105.2 38.055C103.87 38.895 102.377 39.315 100.72 39.315C99.2967 39.315 98.0367 39.0233 96.94 38.44C95.8667 37.8567 94.9917 37.1217 94.315 36.235V48.24H89.415V19.61H94.315V22.41ZM104.57 29.235C104.57 28.0683 104.325 27.065 103.835 26.225C103.368 25.3617 102.738 24.7083 101.945 24.265C101.175 23.8217 100.335 23.6 99.425 23.6C98.5383 23.6 97.6983 23.8333 96.905 24.3C96.135 24.7433 95.505 25.3967 95.015 26.26C94.5483 27.1233 94.315 28.1383 94.315 29.305C94.315 30.4717 94.5483 31.4867 95.015 32.35C95.505 33.2133 96.135 33.8783 96.905 34.345C97.6983 34.7883 98.5383 35.01 99.425 35.01C100.335 35.01 101.175 34.7767 101.945 34.31C102.738 33.8433 103.368 33.1783 103.835 32.315C104.325 31.4517 104.57 30.425 104.57 29.235Z" fill="#4B3F27"/>
<path d="M35.07 54.57L28.245 79H22.47L17.885 61.605L13.09 79L7.35 79.035L0.77 54.57H6.02L10.325 73.54L15.295 54.57H20.755L25.445 73.435L29.785 54.57H35.07ZM37.0095 69.235C37.0095 67.275 37.3945 65.5367 38.1645 64.02C38.9578 62.5033 40.0195 61.3367 41.3495 60.52C42.7028 59.7033 44.2078 59.295 45.8645 59.295C47.3112 59.295 48.5712 59.5867 49.6445 60.17C50.7412 60.7533 51.6162 61.4883 52.2695 62.375V59.61H57.2045V79H52.2695V76.165C51.6395 77.075 50.7645 77.8333 49.6445 78.44C48.5478 79.0233 47.2762 79.315 45.8295 79.315C44.1962 79.315 42.7028 78.895 41.3495 78.055C40.0195 77.215 38.9578 76.0367 38.1645 74.52C37.3945 72.98 37.0095 71.2183 37.0095 69.235ZM52.2695 69.305C52.2695 68.115 52.0362 67.1 51.5695 66.26C51.1028 65.3967 50.4728 64.7433 49.6795 64.3C48.8862 63.8333 48.0345 63.6 47.1245 63.6C46.2145 63.6 45.3745 63.8217 44.6045 64.265C43.8345 64.7083 43.2045 65.3617 42.7145 66.225C42.2478 67.065 42.0145 68.0683 42.0145 69.235C42.0145 70.4017 42.2478 71.4283 42.7145 72.315C43.2045 73.1783 43.8345 73.8433 44.6045 74.31C45.3978 74.7767 46.2378 75.01 47.1245 75.01C48.0345 75.01 48.8862 74.7883 49.6795 74.345C50.4728 73.8783 51.1028 73.225 51.5695 72.385C52.0362 71.5217 52.2695 70.495 52.2695 69.305ZM67.6952 63.635V73.015C67.6952 73.6683 67.8469 74.1467 68.1502 74.45C68.4769 74.73 69.0135 74.87 69.7602 74.87H72.0352V79H68.9552C64.8252 79 62.7602 76.9933 62.7602 72.98V63.635H60.4502V59.61H62.7602V54.815H67.6952V59.61H72.0352V63.635H67.6952ZM74.2995 69.305C74.2995 67.2983 74.7079 65.5483 75.5245 64.055C76.3412 62.5383 77.4729 61.3717 78.9195 60.555C80.3662 59.715 82.0229 59.295 83.8895 59.295C86.2929 59.295 88.2762 59.9017 89.8395 61.115C91.4262 62.305 92.4879 63.985 93.0245 66.155H87.7395C87.4595 65.315 86.9812 64.6617 86.3045 64.195C85.6512 63.705 84.8345 63.46 83.8545 63.46C82.4545 63.46 81.3462 63.9733 80.5295 65C79.7129 66.0033 79.3045 67.4383 79.3045 69.305C79.3045 71.1483 79.7129 72.5833 80.5295 73.61C81.3462 74.6133 82.4545 75.115 83.8545 75.115C85.8379 75.115 87.1329 74.2283 87.7395 72.455H93.0245C92.4879 74.555 91.4262 76.2233 89.8395 77.46C88.2529 78.6967 86.2695 79.315 83.8895 79.315C82.0229 79.315 80.3662 78.9067 78.9195 78.09C77.4729 77.25 76.3412 76.0833 75.5245 74.59C74.7079 73.0733 74.2995 71.3117 74.2995 69.305ZM107.534 59.33C109.004 59.33 110.311 59.6567 111.454 60.31C112.598 60.94 113.484 61.885 114.114 63.145C114.768 64.3817 115.094 65.875 115.094 67.625V79H110.194V68.29C110.194 66.75 109.809 65.5717 109.039 64.755C108.269 63.915 107.219 63.495 105.889 63.495C104.536 63.495 103.463 63.915 102.669 64.755C101.899 65.5717 101.514 66.75 101.514 68.29V79H96.6142V53.1H101.514V62.025C102.144 61.185 102.984 60.5317 104.034 60.065C105.084 59.575 106.251 59.33 107.534 59.33Z" fill="#4B3F27"/>
<path d="M129.339 44.92L128.571 68.104H122.907L122.091 44.92H129.339ZM125.883 79.336C124.667 79.336 123.659 78.968 122.859 78.232C122.091 77.464 121.707 76.52 121.707 75.4C121.707 74.28 122.091 73.352 122.859 72.616C123.659 71.848 124.667 71.464 125.883 71.464C127.067 71.464 128.043 71.848 128.811 72.616C129.579 73.352 129.963 74.28 129.963 75.4C129.963 76.52 129.579 77.464 128.811 78.232C128.043 78.968 127.067 79.336 125.883 79.336Z" fill="#4287B5"/>
<path d="M50.5 26.375C50.5 35.5567 58.335 43 68 43C77.665 43 85.5 35.5567 85.5 26.375C85.5 17.1932 77.665 9.75 68 9.75C58.335 9.75 50.5 17.1932 50.5 26.375ZM68 13.1429C76.285 13.1429 81.3333 18.5042 81.3333 26.375C81.3333 34.2457 76.285 39.6071 68 39.6071C59.715 39.6071 54.6667 34.2457 54.6667 26.375C54.6667 18.5042 59.715 13.1429 68 13.1429Z" fill="#4287B5"/>
<path d="M73.3337 5H62.667V7.71429H73.3337V5Z" fill="#4287B5"/>
<path d="M82.3356 8.2111L80.3486 10.0988L83.8841 13.4575L85.8711 11.5698L82.3356 8.2111Z" fill="#4287B5"/>
<path d="M68 14.5V26.375H80.5C80.5 19.8176 74.9025 14.5 68 14.5Z" fill="#4287B5"/>
</svg>
